<svg xmlns="http://www.w3.org/2000/svg" width="1800" height="2700" viewBox="0 0 1800 2700"><rect width="1800" height="2700" fill="#d9e6f1"/><defs><linearGradient id="paper-wash" x1="0" y1="0" x2="1" y2="1"><stop stop-color="#d9e6f1"/><stop offset=".6" stop-color="#d9e6f1"/><stop offset="1" stop-color="#82a2c1"/></linearGradient><pattern id="paper-grain" width="29" height="23" patternUnits="userSpaceOnUse"><circle cx="3" cy="6" r="0.9" fill="#314b68" stroke="none" stroke-width="5"/><path d="M12 19h4" fill="none" stroke="#314b68" stroke-width="0.7" stroke-linecap="round" stroke-linejoin="round" /></pattern></defs><rect x="0" y="0" width="1800" height="2700" rx="0" fill="url(#paper-wash)" /><rect x="0" y="0" width="1800" height="2700" rx="0" fill="url(#paper-grain)" opacity=".075"/><path d="M0 0V2700" fill="none" stroke="#faf0c7" stroke-width="1.5" stroke-linecap="round" stroke-linejoin="round" opacity=".18"/><path d="M90 0V2700" fill="none" stroke="#faf0c7" stroke-width="1.5" stroke-linecap="round" stroke-linejoin="round" opacity=".18"/><path d="M180 0V2700" fill="none" stroke="#faf0c7" stroke-width="1.5" stroke-linecap="round" stroke-linejoin="round" opacity=".18"/><path d="M270 0V2700" fill="none" stroke="#faf0c7" stroke-width="1.5" stroke-linecap="round" stroke-linejoin="round" opacity=".18"/><path d="M360 0V2700" fill="none" stroke="#faf0c7" stroke-width="1.5" stroke-linecap="round" stroke-linejoin="round" opacity=".18"/><path d="M450 0V2700" fill="none" stroke="#faf0c7" stroke-width="1.5" stroke-linecap="round" stroke-linejoin="round" opacity=".18"/><path d="M540 0V2700" fill="none" stroke="#faf0c7" stroke-width="1.5" stroke-linecap="round" stroke-linejoin="round" opacity=".18"/><path d="M630 0V2700" fill="none" stroke="#faf0c7" stroke-width="1.5" stroke-linecap="round" stroke-linejoin="round" opacity=".18"/><path d="M720 0V2700" fill="none" stroke="#faf0c7" stroke-width="1.5" stroke-linecap="round" stroke-linejoin="round" opacity=".18"/><path d="M810 0V2700" fill="none" stroke="#faf0c7" stroke-width="1.5" stroke-linecap="round" stroke-linejoin="round" opacity=".18"/><path d="M900 0V2700" fill="none" stroke="#faf0c7" stroke-width="1.5" stroke-linecap="round" stroke-linejoin="round" opacity=".18"/><path d="M990 0V2700" fill="none" stroke="#faf0c7" stroke-width="1.5" stroke-linecap="round" stroke-linejoin="round" opacity=".18"/><path d="M1080 0V2700" fill="none" stroke="#faf0c7" stroke-width="1.5" stroke-linecap="round" stroke-linejoin="round" opacity=".18"/><path d="M1170 0V2700" fill="none" stroke="#faf0c7" stroke-width="1.5" stroke-linecap="round" stroke-linejoin="round" opacity=".18"/><path d="M1260 0V2700" fill="none" stroke="#faf0c7" stroke-width="1.5" stroke-linecap="round" stroke-linejoin="round" opacity=".18"/><path d="M1350 0V2700" fill="none" stroke="#faf0c7" stroke-width="1.5" stroke-linecap="round" stroke-linejoin="round" opacity=".18"/><path d="M1440 0V2700" fill="none" stroke="#faf0c7" stroke-width="1.5" stroke-linecap="round" stroke-linejoin="round" opacity=".18"/><path d="M1530 0V2700" fill="none" stroke="#faf0c7" stroke-width="1.5" stroke-linecap="round" stroke-linejoin="round" opacity=".18"/><path d="M1620 0V2700" fill="none" stroke="#faf0c7" stroke-width="1.5" stroke-linecap="round" stroke-linejoin="round" opacity=".18"/><path d="M1710 0V2700" fill="none" stroke="#faf0c7" stroke-width="1.5" stroke-linecap="round" stroke-linejoin="round" opacity=".18"/><path d="M0 0H1800" fill="none" stroke="#314b68" stroke-width="1" stroke-linecap="round" stroke-linejoin="round" opacity=".10"/><path d="M0 90H1800" fill="none" stroke="#314b68" stroke-width="1" stroke-linecap="round" stroke-linejoin="round" opacity=".10"/><path d="M0 180H1800" fill="none" stroke="#314b68" stroke-width="1" stroke-linecap="round" stroke-linejoin="round" opacity=".10"/><path d="M0 270H1800" fill="none" stroke="#314b68" stroke-width="1" stroke-linecap="round" stroke-linejoin="round" opacity=".10"/><path d="M0 360H1800" fill="none" stroke="#314b68" stroke-width="1" stroke-linecap="round" stroke-linejoin="round" opacity=".10"/><path d="M0 450H1800" fill="none" stroke="#314b68" stroke-width="1" stroke-linecap="round" stroke-linejoin="round" opacity=".10"/><path d="M0 540H1800" fill="none" stroke="#314b68" stroke-width="1" stroke-linecap="round" stroke-linejoin="round" opacity=".10"/><path d="M0 630H1800" fill="none" stroke="#314b68" stroke-width="1" stroke-linecap="round" stroke-linejoin="round" opacity=".10"/><path d="M0 720H1800" fill="none" stroke="#314b68" stroke-width="1" stroke-linecap="round" stroke-linejoin="round" opacity=".10"/><path d="M0 810H1800" fill="none" stroke="#314b68" stroke-width="1" stroke-linecap="round" stroke-linejoin="round" opacity=".10"/><path d="M0 900H1800" fill="none" stroke="#314b68" stroke-width="1" stroke-linecap="round" stroke-linejoin="round" opacity=".10"/><path d="M0 990H1800" fill="none" stroke="#314b68" stroke-width="1" stroke-linecap="round" stroke-linejoin="round" opacity=".10"/><path d="M0 1080H1800" fill="none" stroke="#314b68" stroke-width="1" stroke-linecap="round" stroke-linejoin="round" opacity=".10"/><path d="M0 1170H1800" fill="none" stroke="#314b68" stroke-width="1" stroke-linecap="round" stroke-linejoin="round" opacity=".10"/><path d="M0 1260H1800" fill="none" stroke="#314b68" stroke-width="1" stroke-linecap="round" stroke-linejoin="round" opacity=".10"/><path d="M0 1350H1800" fill="none" stroke="#314b68" stroke-width="1" stroke-linecap="round" stroke-linejoin="round" opacity=".10"/><path d="M0 1440H1800" fill="none" stroke="#314b68" stroke-width="1" stroke-linecap="round" stroke-linejoin="round" opacity=".10"/><path d="M0 1530H1800" fill="none" stroke="#314b68" stroke-width="1" stroke-linecap="round" stroke-linejoin="round" opacity=".10"/><path d="M0 1620H1800" fill="none" stroke="#314b68" stroke-width="1" stroke-linecap="round" stroke-linejoin="round" opacity=".10"/><path d="M0 1710H1800" fill="none" stroke="#314b68" stroke-width="1" stroke-linecap="round" stroke-linejoin="round" opacity=".10"/><path d="M0 1800H1800" fill="none" stroke="#314b68" stroke-width="1" stroke-linecap="round" stroke-linejoin="round" opacity=".10"/><path d="M0 1890H1800" fill="none" stroke="#314b68" stroke-width="1" stroke-linecap="round" stroke-linejoin="round" opacity=".10"/><path d="M0 1980H1800" fill="none" stroke="#314b68" stroke-width="1" stroke-linecap="round" stroke-linejoin="round" opacity=".10"/><path d="M0 2070H1800" fill="none" stroke="#314b68" stroke-width="1" stroke-linecap="round" stroke-linejoin="round" opacity=".10"/><path d="M0 2160H1800" fill="none" stroke="#314b68" stroke-width="1" stroke-linecap="round" stroke-linejoin="round" opacity=".10"/><path d="M0 2250H1800" fill="none" stroke="#314b68" stroke-width="1" stroke-linecap="round" stroke-linejoin="round" opacity=".10"/><path d="M0 2340H1800" fill="none" stroke="#314b68" stroke-width="1" stroke-linecap="round" stroke-linejoin="round" opacity=".10"/><path d="M0 2430H1800" fill="none" stroke="#314b68" stroke-width="1" stroke-linecap="round" stroke-linejoin="round" opacity=".10"/><path d="M0 2520H1800" fill="none" stroke="#314b68" stroke-width="1" stroke-linecap="round" stroke-linejoin="round" opacity=".10"/><path d="M0 2610H1800" fill="none" stroke="#314b68" stroke-width="1" stroke-linecap="round" stroke-linejoin="round" opacity=".10"/><rect x="22" y="22" width="1756" height="2656" rx="14" fill="none" stroke="#314b68" stroke-width="3" stroke-dasharray="16 13" opacity=".5"/><rect x="270" y="2467.8" width="1260" height="140.4" rx="21" fill="#fff9ef" opacity=".95"/><g transform="translate(495.00000000000006 859.95) rotate(-1.2)"><rect x="-408" y="-484.95000000000005" width="816" height="1009.9000000000001" rx="5" fill="#fffcf7" stroke="#314b68" stroke-width="2" stroke-opacity=".18"/><path d="M-366 501.95000000000005h189" stroke="#314b68" stroke-width="2" opacity=".2"/></g><g transform="translate(1314 859.95) rotate(1.2)"><rect x="-408" y="-484.95000000000005" width="816" height="1009.9000000000001" rx="5" fill="#fffcf7" stroke="#314b68" stroke-width="2" stroke-opacity=".18"/><path d="M-366 501.95000000000005h189" stroke="#314b68" stroke-width="2" opacity=".2"/></g><g transform="translate(495.00000000000006 1899.45) rotate(1.2)"><rect x="-408" y="-484.95000000000005" width="816" height="1009.9000000000001" rx="5" fill="#fffcf7" stroke="#314b68" stroke-width="2" stroke-opacity=".18"/><path d="M-366 501.95000000000005h189" stroke="#314b68" stroke-width="2" opacity=".2"/></g><g transform="translate(1314 1899.45) rotate(-1.2)"><rect x="-408" y="-484.95000000000005" width="816" height="1009.9000000000001" rx="5" fill="#fffcf7" stroke="#314b68" stroke-width="2" stroke-opacity=".18"/><path d="M-366 501.95000000000005h189" stroke="#314b68" stroke-width="2" opacity=".2"/></g><g transform="translate(9 15)" opacity=".18"><g transform="translate(495 859.95) rotate(-1.2) translate(-378 -454.95000000000005)"><rect x="0" y="0" width="756" height="909.9000000000001" rx="0" fill="none" stroke="#314b68" stroke-width="80"/></g><g transform="translate(1314 859.95) rotate(1.2) translate(-378 -454.95000000000005)"><rect x="0" y="0" width="756" height="909.9000000000001" rx="0" fill="none" stroke="#314b68" stroke-width="80"/></g><g transform="translate(495 1899.45) rotate(1.2) translate(-378 -454.95000000000005)"><rect x="0" y="0" width="756" height="909.9000000000001" rx="0" fill="none" stroke="#314b68" stroke-width="80"/></g><g transform="translate(1314 1899.45) rotate(-1.2) translate(-378 -454.95000000000005)"><rect x="0" y="0" width="756" height="909.9000000000001" rx="0" fill="none" stroke="#314b68" stroke-width="80"/></g></g><g transform="translate(495 859.95) rotate(-1.2) translate(-378 -454.95000000000005)"><rect x="0" y="0" width="756" height="909.9000000000001" rx="0" fill="none" stroke="#faf0c7" stroke-width="76"/></g><g transform="translate(1314 859.95) rotate(1.2) translate(-378 -454.95000000000005)"><rect x="0" y="0" width="756" height="909.9000000000001" rx="0" fill="none" stroke="#faf0c7" stroke-width="76"/></g><g transform="translate(495 1899.45) rotate(1.2) translate(-378 -454.95000000000005)"><rect x="0" y="0" width="756" height="909.9000000000001" rx="0" fill="none" stroke="#faf0c7" stroke-width="76"/></g><g transform="translate(1314 1899.45) rotate(-1.2) translate(-378 -454.95000000000005)"><rect x="0" y="0" width="756" height="909.9000000000001" rx="0" fill="none" stroke="#faf0c7" stroke-width="76"/></g><g transform="translate(495 859.95) rotate(-1.2) translate(-378 -454.95000000000005)"><rect x="0" y="0" width="756" height="909.9000000000001" rx="0" fill="none" stroke="#fff9ef" stroke-width="53"/></g><g transform="translate(1314 859.95) rotate(1.2) translate(-378 -454.95000000000005)"><rect x="0" y="0" width="756" height="909.9000000000001" rx="0" fill="none" stroke="#fff9ef" stroke-width="53"/></g><g transform="translate(495 1899.45) rotate(1.2) translate(-378 -454.95000000000005)"><rect x="0" y="0" width="756" height="909.9000000000001" rx="0" fill="none" stroke="#fff9ef" stroke-width="53"/></g><g transform="translate(1314 1899.45) rotate(-1.2) translate(-378 -454.95000000000005)"><rect x="0" y="0" width="756" height="909.9000000000001" rx="0" fill="none" stroke="#fff9ef" stroke-width="53"/></g><defs>
    <pattern id="print-fibers" width="79" height="67" patternUnits="userSpaceOnUse">
      <path d="M5 11l9 -2M38 45l6 2M66 23l4 -1" stroke="#314b68" stroke-width=".7" opacity=".12"/>
      <path d="M17 38l8 1M51 8l7 -2M63 59l6 1" stroke="#ffffff" stroke-width="1.2" opacity=".55"/>
      <circle cx="31" cy="21" r=".8" fill="#314b68" opacity=".1"/>
      <circle cx="72" cy="44" r="1.1" fill="#ffffff" opacity=".5"/>
    </pattern>
    <linearGradient id="print-light" x1="0" y1="0" x2="1" y2="1">
      <stop stop-color="#ffffff" stop-opacity=".08"/>
      <stop offset=".6" stop-color="#ffffff" stop-opacity="0"/>
      <stop offset="1" stop-color="#314b68" stop-opacity=".035"/>
    </linearGradient>
  </defs>
  <rect width="1800" height="2700" fill="url(#print-light)"/>
  <rect width="1800" height="2700" fill="url(#print-fibers)"/>
  <rect x="19.799999999999997" y="19.799999999999997" width="1760.4" height="2660.4" fill="none" stroke="#fffcf7" stroke-width="39.599999999999994"/>
  <rect x="41.599999999999994" y="41.599999999999994" width="1716.8" height="2616.8" fill="none" stroke="#314b68" stroke-width="1.2" opacity=".16"/></svg>