<svg xmlns="http://www.w3.org/2000/svg" width="1200" height="3600" viewBox="0 0 1200 3600"><defs><mask id="signature-safe" maskUnits="userSpaceOnUse" x="0" y="0" width="1200" height="3600"><rect x="0" y="0" width="1200" height="3600" rx="0" fill="white" /><g transform="translate(600 1188) rotate(0) translate(-540 -936)"><rect x="0" y="0" width="1080" height="1872" rx="0" fill="black"/></g><g transform="translate(600 2763) rotate(0) translate(-540 -423)"><rect x="0" y="0" width="1080" height="846" rx="0" fill="black"/></g><rect x="144" y="54" width="912" height="108" rx="0" fill="black" /><rect x="84.00000000000001" y="3261.6" width="1032" height="198" rx="0" fill="black" /><rect x="180" y="3499.2" width="840" height="64.8" rx="0" fill="black" /></mask></defs><g mask="url(#signature-safe)"><defs>
 <linearGradient id="sig-gold" x2=".7" y2="1"><stop stop-color="#73482c"/><stop offset=".2" stop-color="#e2b862"/><stop offset=".45" stop-color="#fff0aa"/><stop offset=".64" stop-color="#b9823c"/><stop offset=".82" stop-color="#ffe7a0"/><stop offset="1" stop-color="#8b5a27"/></linearGradient>
 <linearGradient id="sig-chrome" x1="0" y1="0" x2=".8" y2="1"><stop stop-color="#faf5ff"/><stop offset=".22" stop-color="#81709f"/><stop offset=".4" stop-color="#fbf7ff"/><stop offset=".53" stop-color="#aacbde"/><stop offset=".7" stop-color="#614c80"/><stop offset=".88" stop-color="#ead8ef"/><stop offset="1" stop-color="#b6a4d3"/></linearGradient>
 <linearGradient id="sig-satin" x2="1" y2=".8"><stop stop-color="#f3b7b2"/><stop offset=".2" stop-color="#a92644"/><stop offset=".4" stop-color="#e9a3a8"/><stop offset=".65" stop-color="#941f39"/><stop offset="1" stop-color="#cf5e74"/></linearGradient>
 <radialGradient id="sig-night"><stop stop-color="#674380"/><stop offset=".62" stop-color="#281b40"/><stop offset="1" stop-color="#100e1e"/></radialGradient>
 <pattern id="sig-speckles" width="59" height="71" patternUnits="userSpaceOnUse"><circle cx="7" cy="19" r="2" fill="#fbecd0" opacity=".18"/><circle cx="41" cy="49" r="1.5" fill="#ffffff" opacity=".15"/><path d="M22 38l5 -2" stroke="#fff" opacity=".12"/></pattern>
 <pattern id="sig-halftone" width="42" height="42" patternUnits="userSpaceOnUse"><circle cx="21" cy="21" r="7" fill="#76b6d8" opacity=".24"/></pattern>
 <pattern id="sig-romance-stripe" width="92" height="92" patternUnits="userSpaceOnUse"><rect width="92" height="92" fill="#f7ebdd"/><rect width="24" height="92" fill="#a02640"/><path d="M36 0V92M54 0V92" stroke="#cc8889" stroke-width="2"/></pattern>
 <filter id="sig-shadow" x="-.15" y="-.15" width="1.3" height="1.3"><feDropShadow dx="8" dy="14" stdDeviation="8" flood-color="#201022" flood-opacity=".28"/></filter>
 <filter id="sig-bulb" x="-.6" y="-.6" width="2.2" height="2.2"><feGaussianBlur stdDeviation="6"/></filter>
 </defs><circle cx="23" cy="55" r="11" fill="#112747" /><circle cx="1177" cy="55" r="11" fill="#112747" /><circle cx="23" cy="107" r="11" fill="#112747" /><circle cx="1177" cy="107" r="11" fill="#112747" /><circle cx="23" cy="159" r="11" fill="#112747" /><circle cx="1177" cy="159" r="11" fill="#112747" /><circle cx="23" cy="211" r="11" fill="#112747" /><circle cx="1177" cy="211" r="11" fill="#112747" /><circle cx="23" cy="263" r="11" fill="#112747" /><circle cx="1177" cy="263" r="11" fill="#112747" /><circle cx="23" cy="315" r="11" fill="#112747" /><circle cx="1177" cy="315" r="11" fill="#112747" /><circle cx="23" cy="367" r="11" fill="#112747" /><circle cx="1177" cy="367" r="11" fill="#112747" /><circle cx="23" cy="419" r="11" fill="#112747" /><circle cx="1177" cy="419" r="11" fill="#112747" /><circle cx="23" cy="471" r="11" fill="#112747" /><circle cx="1177" cy="471" r="11" fill="#112747" /><circle cx="23" cy="523" r="11" fill="#112747" /><circle cx="1177" cy="523" r="11" fill="#112747" /><circle cx="23" cy="575" r="11" fill="#112747" /><circle cx="1177" cy="575" r="11" fill="#112747" /><circle cx="23" cy="627" r="11" fill="#112747" /><circle cx="1177" cy="627" r="11" fill="#112747" /><circle cx="23" cy="679" r="11" fill="#112747" /><circle cx="1177" cy="679" r="11" fill="#112747" /><circle cx="23" cy="731" r="11" fill="#112747" /><circle cx="1177" cy="731" r="11" fill="#112747" /><circle cx="23" cy="783" r="11" fill="#112747" /><circle cx="1177" cy="783" r="11" fill="#112747" /><circle cx="23" cy="835" r="11" fill="#112747" /><circle cx="1177" cy="835" r="11" fill="#112747" /><circle cx="23" cy="887" r="11" fill="#112747" /><circle cx="1177" cy="887" r="11" fill="#112747" /><circle cx="23" cy="939" r="11" fill="#112747" /><circle cx="1177" cy="939" r="11" fill="#112747" /><circle cx="23" cy="991" r="11" fill="#112747" /><circle cx="1177" cy="991" r="11" fill="#112747" /><circle cx="23" cy="1043" r="11" fill="#112747" /><circle cx="1177" cy="1043" r="11" fill="#112747" /><circle cx="23" cy="1095" r="11" fill="#112747" /><circle cx="1177" cy="1095" r="11" fill="#112747" /><circle cx="23" cy="1147" r="11" fill="#112747" /><circle cx="1177" cy="1147" r="11" fill="#112747" /><circle cx="23" cy="1199" r="11" fill="#112747" /><circle cx="1177" cy="1199" r="11" fill="#112747" /><circle cx="23" cy="1251" r="11" fill="#112747" /><circle cx="1177" cy="1251" r="11" fill="#112747" /><circle cx="23" cy="1303" r="11" fill="#112747" /><circle cx="1177" cy="1303" r="11" fill="#112747" /><circle cx="23" cy="1355" r="11" fill="#112747" /><circle cx="1177" cy="1355" r="11" fill="#112747" /><circle cx="23" cy="1407" r="11" fill="#112747" /><circle cx="1177" cy="1407" r="11" fill="#112747" /><circle cx="23" cy="1459" r="11" fill="#112747" /><circle cx="1177" cy="1459" r="11" fill="#112747" /><circle cx="23" cy="1511" r="11" fill="#112747" /><circle cx="1177" cy="1511" r="11" fill="#112747" /><circle cx="23" cy="1563" r="11" fill="#112747" /><circle cx="1177" cy="1563" r="11" fill="#112747" /><circle cx="23" cy="1615" r="11" fill="#112747" /><circle cx="1177" cy="1615" r="11" fill="#112747" /><circle cx="23" cy="1667" r="11" fill="#112747" /><circle cx="1177" cy="1667" r="11" fill="#112747" /><circle cx="23" cy="1719" r="11" fill="#112747" /><circle cx="1177" cy="1719" r="11" fill="#112747" /><circle cx="23" cy="1771" r="11" fill="#112747" /><circle cx="1177" cy="1771" r="11" fill="#112747" /><circle cx="23" cy="1823" r="11" fill="#112747" /><circle cx="1177" cy="1823" r="11" fill="#112747" /><circle cx="23" cy="1875" r="11" fill="#112747" /><circle cx="1177" cy="1875" r="11" fill="#112747" /><circle cx="23" cy="1927" r="11" fill="#112747" /><circle cx="1177" cy="1927" r="11" fill="#112747" /><circle cx="23" cy="1979" r="11" fill="#112747" /><circle cx="1177" cy="1979" r="11" fill="#112747" /><circle cx="23" cy="2031" r="11" fill="#112747" /><circle cx="1177" cy="2031" r="11" fill="#112747" /><circle cx="23" cy="2083" r="11" fill="#112747" /><circle cx="1177" cy="2083" r="11" fill="#112747" /><circle cx="23" cy="2135" r="11" fill="#112747" /><circle cx="1177" cy="2135" r="11" fill="#112747" /><circle cx="23" cy="2187" r="11" fill="#112747" /><circle cx="1177" cy="2187" r="11" fill="#112747" /><circle cx="23" cy="2239" r="11" fill="#112747" /><circle cx="1177" cy="2239" r="11" fill="#112747" /><circle cx="23" cy="2291" r="11" fill="#112747" /><circle cx="1177" cy="2291" r="11" fill="#112747" /><circle cx="23" cy="2343" r="11" fill="#112747" /><circle cx="1177" cy="2343" r="11" fill="#112747" /><circle cx="23" cy="2395" r="11" fill="#112747" /><circle cx="1177" cy="2395" r="11" fill="#112747" /><circle cx="23" cy="2447" r="11" fill="#112747" /><circle cx="1177" cy="2447" r="11" fill="#112747" /><circle cx="23" cy="2499" r="11" fill="#112747" /><circle cx="1177" cy="2499" r="11" fill="#112747" /><circle cx="23" cy="2551" r="11" fill="#112747" /><circle cx="1177" cy="2551" r="11" fill="#112747" /><circle cx="23" cy="2603" r="11" fill="#112747" /><circle cx="1177" cy="2603" r="11" fill="#112747" /><circle cx="23" cy="2655" r="11" fill="#112747" /><circle cx="1177" cy="2655" r="11" fill="#112747" /><circle cx="23" cy="2707" r="11" fill="#112747" /><circle cx="1177" cy="2707" r="11" fill="#112747" /><circle cx="23" cy="2759" r="11" fill="#112747" /><circle cx="1177" cy="2759" r="11" fill="#112747" /><circle cx="23" cy="2811" r="11" fill="#112747" /><circle cx="1177" cy="2811" r="11" fill="#112747" /><circle cx="23" cy="2863" r="11" fill="#112747" /><circle cx="1177" cy="2863" r="11" fill="#112747" /><circle cx="23" cy="2915" r="11" fill="#112747" /><circle cx="1177" cy="2915" r="11" fill="#112747" /><circle cx="23" cy="2967" r="11" fill="#112747" /><circle cx="1177" cy="2967" r="11" fill="#112747" /><circle cx="23" cy="3019" r="11" fill="#112747" /><circle cx="1177" cy="3019" r="11" fill="#112747" /><circle cx="23" cy="3071" r="11" fill="#112747" /><circle cx="1177" cy="3071" r="11" fill="#112747" /><circle cx="23" cy="3123" r="11" fill="#112747" /><circle cx="1177" cy="3123" r="11" fill="#112747" /><circle cx="23" cy="3175" r="11" fill="#112747" /><circle cx="1177" cy="3175" r="11" fill="#112747" /><circle cx="23" cy="3227" r="11" fill="#112747" /><circle cx="1177" cy="3227" r="11" fill="#112747" /><circle cx="23" cy="3279" r="11" fill="#112747" /><circle cx="1177" cy="3279" r="11" fill="#112747" /><circle cx="23" cy="3331" r="11" fill="#112747" /><circle cx="1177" cy="3331" r="11" fill="#112747" /><circle cx="23" cy="3383" r="11" fill="#112747" /><circle cx="1177" cy="3383" r="11" fill="#112747" /><circle cx="23" cy="3435" r="11" fill="#112747" /><circle cx="1177" cy="3435" r="11" fill="#112747" /><circle cx="23" cy="3487" r="11" fill="#112747" /><circle cx="1177" cy="3487" r="11" fill="#112747" /><circle cx="23" cy="3539" r="11" fill="#112747" /><circle cx="1177" cy="3539" r="11" fill="#112747" /><text x="600" y="219.6" text-anchor="middle" font-family="Georgia,serif" font-size="27" fill="#303643" letter-spacing="5">PHOTO BOOTH / LATE NIGHT EDITION</text><path d="M45 2228.4H1155" fill="none" stroke="#333b48" stroke-width="3" stroke-linecap="round" stroke-dasharray="10 12"/><circle cx="24" cy="2228.4" r="31" fill="#112747" /><circle cx="1176" cy="2228.4" r="31" fill="#112747" /><text x="300" y="2178" text-anchor="middle" font-family="Georgia,serif" font-size="29" fill="#303643" letter-spacing="4">ADMIT TWO</text><rect x="564" y="2149.2" width="4.586301369863014" height="43.2" rx="0" fill="#283447" /><rect x="569.0958904109589" y="2149.2" width="2.293150684931507" height="43.2" rx="0" fill="#283447" /><rect x="579.2876712328767" y="2149.2" width="4.586301369863014" height="43.2" rx="0" fill="#283447" /><rect x="584.3835616438356" y="2149.2" width="2.293150684931507" height="43.2" rx="0" fill="#283447" /><rect x="589.4794520547945" y="2149.2" width="2.293150684931507" height="43.2" rx="0" fill="#283447" /><rect x="594.5753424657535" y="2149.2" width="4.586301369863014" height="43.2" rx="0" fill="#283447" /><rect x="604.7671232876712" y="2149.2" width="2.293150684931507" height="43.2" rx="0" fill="#283447" /><rect x="609.8630136986301" y="2149.2" width="4.586301369863014" height="43.2" rx="0" fill="#283447" /><rect x="614.9589041095891" y="2149.2" width="2.293150684931507" height="43.2" rx="0" fill="#283447" /><rect x="620.054794520548" y="2149.2" width="2.293150684931507" height="43.2" rx="0" fill="#283447" /><rect x="630.2465753424658" y="2149.2" width="2.293150684931507" height="43.2" rx="0" fill="#283447" /><rect x="635.3424657534247" y="2149.2" width="2.293150684931507" height="43.2" rx="0" fill="#283447" /><rect x="640.4383561643835" y="2149.2" width="4.586301369863014" height="43.2" rx="0" fill="#283447" /><rect x="645.5342465753424" y="2149.2" width="2.293150684931507" height="43.2" rx="0" fill="#283447" /><rect x="655.7260273972603" y="2149.2" width="4.586301369863014" height="43.2" rx="0" fill="#283447" /><rect x="660.8219178082192" y="2149.2" width="2.293150684931507" height="43.2" rx="0" fill="#283447" /><rect x="665.9178082191781" y="2149.2" width="2.293150684931507" height="43.2" rx="0" fill="#283447" /><rect x="671.013698630137" y="2149.2" width="4.586301369863014" height="43.2" rx="0" fill="#283447" /><rect x="681.2054794520548" y="2149.2" width="2.293150684931507" height="43.2" rx="0" fill="#283447" /><rect x="686.3013698630137" y="2149.2" width="4.586301369863014" height="43.2" rx="0" fill="#283447" /><rect x="691.3972602739726" y="2149.2" width="2.293150684931507" height="43.2" rx="0" fill="#283447" /><rect x="696.4931506849315" y="2149.2" width="2.293150684931507" height="43.2" rx="0" fill="#283447" /><rect x="706.6849315068494" y="2149.2" width="2.293150684931507" height="43.2" rx="0" fill="#283447" /><rect x="711.7808219178082" y="2149.2" width="2.293150684931507" height="43.2" rx="0" fill="#283447" /><rect x="716.8767123287671" y="2149.2" width="4.586301369863014" height="43.2" rx="0" fill="#283447" /><rect x="721.972602739726" y="2149.2" width="2.293150684931507" height="43.2" rx="0" fill="#283447" /><rect x="732.1643835616438" y="2149.2" width="4.586301369863014" height="43.2" rx="0" fill="#283447" /><rect x="737.2602739726027" y="2149.2" width="2.293150684931507" height="43.2" rx="0" fill="#283447" /><rect x="742.3561643835617" y="2149.2" width="2.293150684931507" height="43.2" rx="0" fill="#283447" /><rect x="747.4520547945206" y="2149.2" width="4.586301369863014" height="43.2" rx="0" fill="#283447" /><rect x="757.6438356164383" y="2149.2" width="2.293150684931507" height="43.2" rx="0" fill="#283447" /><rect x="762.7397260273973" y="2149.2" width="4.586301369863014" height="43.2" rx="0" fill="#283447" /><rect x="767.8356164383562" y="2149.2" width="2.293150684931507" height="43.2" rx="0" fill="#283447" /><rect x="772.931506849315" y="2149.2" width="2.293150684931507" height="43.2" rx="0" fill="#283447" /><rect x="783.1232876712329" y="2149.2" width="2.293150684931507" height="43.2" rx="0" fill="#283447" /><rect x="788.2191780821918" y="2149.2" width="2.293150684931507" height="43.2" rx="0" fill="#283447" /><rect x="793.3150684931506" y="2149.2" width="4.586301369863014" height="43.2" rx="0" fill="#283447" /><rect x="798.4109589041095" y="2149.2" width="2.293150684931507" height="43.2" rx="0" fill="#283447" /><rect x="808.6027397260274" y="2149.2" width="4.586301369863014" height="43.2" rx="0" fill="#283447" /><rect x="813.6986301369864" y="2149.2" width="2.293150684931507" height="43.2" rx="0" fill="#283447" /><rect x="818.7945205479452" y="2149.2" width="2.293150684931507" height="43.2" rx="0" fill="#283447" /><rect x="823.8904109589041" y="2149.2" width="4.586301369863014" height="43.2" rx="0" fill="#283447" /><rect x="834.0821917808219" y="2149.2" width="2.293150684931507" height="43.2" rx="0" fill="#283447" /><rect x="839.1780821917808" y="2149.2" width="4.586301369863014" height="43.2" rx="0" fill="#283447" /><rect x="844.2739726027397" y="2149.2" width="2.293150684931507" height="43.2" rx="0" fill="#283447" /><rect x="849.3698630136987" y="2149.2" width="2.293150684931507" height="43.2" rx="0" fill="#283447" /><rect x="859.5616438356165" y="2149.2" width="2.293150684931507" height="43.2" rx="0" fill="#283447" /><rect x="864.6575342465753" y="2149.2" width="2.293150684931507" height="43.2" rx="0" fill="#283447" /><rect x="869.7534246575342" y="2149.2" width="4.586301369863014" height="43.2" rx="0" fill="#283447" /><rect x="874.8493150684931" y="2149.2" width="2.293150684931507" height="43.2" rx="0" fill="#283447" /><rect x="885.041095890411" y="2149.2" width="4.586301369863014" height="43.2" rx="0" fill="#283447" /><rect x="890.1369863013699" y="2149.2" width="2.293150684931507" height="43.2" rx="0" fill="#283447" /><rect x="895.2328767123288" y="2149.2" width="2.293150684931507" height="43.2" rx="0" fill="#283447" /><rect x="900.3287671232877" y="2149.2" width="4.586301369863014" height="43.2" rx="0" fill="#283447" /><rect x="910.5205479452054" y="2149.2" width="2.293150684931507" height="43.2" rx="0" fill="#283447" /><rect x="915.6164383561644" y="2149.2" width="4.586301369863014" height="43.2" rx="0" fill="#283447" /><rect x="920.7123287671233" y="2149.2" width="2.293150684931507" height="43.2" rx="0" fill="#283447" /><rect x="925.8082191780823" y="2149.2" width="2.293150684931507" height="43.2" rx="0" fill="#283447" /><text x="600" y="2311.2000000000003" text-anchor="middle" font-family="Georgia,serif" font-size="25" fill="#303643" letter-spacing="4">№ 004 / KEEP THIS TICKET</text><text x="600" y="3232.8" text-anchor="middle" font-family="Georgia,serif" font-size="29" fill="#303643" letter-spacing="5">THE NIGHT IS OURS</text><g transform="translate(942 3222) rotate(-6) scale(1)"><rect x="-116" y="-28" width="232" height="56" rx="3" fill="url(#sig-gold)" /><text x="0" y="9" text-anchor="middle" font-family="Georgia,serif" font-size="23" fill="#46331e" >ALL ACCESS</text></g><rect x="336.00000000000006" y="3474" width="6.50958904109589" height="19" rx="0" fill="#283447" /><rect x="343.23287671232885" y="3474" width="3.254794520547945" height="19" rx="0" fill="#283447" /><rect x="357.69863013698637" y="3474" width="6.50958904109589" height="19" rx="0" fill="#283447" /><rect x="364.9315068493151" y="3474" width="3.254794520547945" height="19" rx="0" fill="#283447" /><rect x="372.1643835616439" y="3474" width="3.254794520547945" height="19" rx="0" fill="#283447" /><rect x="379.3972602739727" y="3474" width="6.50958904109589" height="19" rx="0" fill="#283447" /><rect x="393.8630136986302" y="3474" width="3.254794520547945" height="19" rx="0" fill="#283447" /><rect x="401.095890410959" y="3474" width="6.50958904109589" height="19" rx="0" fill="#283447" /><rect x="408.3287671232877" y="3474" width="3.254794520547945" height="19" rx="0" fill="#283447" /><rect x="415.5616438356165" y="3474" width="3.254794520547945" height="19" rx="0" fill="#283447" /><rect x="430.02739726027403" y="3474" width="3.254794520547945" height="19" rx="0" fill="#283447" /><rect x="437.2602739726028" y="3474" width="3.254794520547945" height="19" rx="0" fill="#283447" /><rect x="444.49315068493155" y="3474" width="6.50958904109589" height="19" rx="0" fill="#283447" /><rect x="451.72602739726034" y="3474" width="3.254794520547945" height="19" rx="0" fill="#283447" /><rect x="466.19178082191786" y="3474" width="6.50958904109589" height="19" rx="0" fill="#283447" /><rect x="473.42465753424665" y="3474" width="3.254794520547945" height="19" rx="0" fill="#283447" /><rect x="480.65753424657544" y="3474" width="3.254794520547945" height="19" rx="0" fill="#283447" /><rect x="487.89041095890417" y="3474" width="6.50958904109589" height="19" rx="0" fill="#283447" /><rect x="502.3561643835617" y="3474" width="3.254794520547945" height="19" rx="0" fill="#283447" /><rect x="509.5890410958905" y="3474" width="6.50958904109589" height="19" rx="0" fill="#283447" /><rect x="516.8219178082193" y="3474" width="3.254794520547945" height="19" rx="0" fill="#283447" /><rect x="524.0547945205481" y="3474" width="3.254794520547945" height="19" rx="0" fill="#283447" /><rect x="538.5205479452055" y="3474" width="3.254794520547945" height="19" rx="0" fill="#283447" /><rect x="545.7534246575343" y="3474" width="3.254794520547945" height="19" rx="0" fill="#283447" /><rect x="552.9863013698631" y="3474" width="6.50958904109589" height="19" rx="0" fill="#283447" /><rect x="560.2191780821918" y="3474" width="3.254794520547945" height="19" rx="0" fill="#283447" /><rect x="574.6849315068494" y="3474" width="6.50958904109589" height="19" rx="0" fill="#283447" /><rect x="581.9178082191781" y="3474" width="3.254794520547945" height="19" rx="0" fill="#283447" /><rect x="589.1506849315069" y="3474" width="3.254794520547945" height="19" rx="0" fill="#283447" /><rect x="596.3835616438357" y="3474" width="6.50958904109589" height="19" rx="0" fill="#283447" /><rect x="610.8493150684932" y="3474" width="3.254794520547945" height="19" rx="0" fill="#283447" /><rect x="618.082191780822" y="3474" width="6.50958904109589" height="19" rx="0" fill="#283447" /><rect x="625.3150684931508" y="3474" width="3.254794520547945" height="19" rx="0" fill="#283447" /><rect x="632.5479452054794" y="3474" width="3.254794520547945" height="19" rx="0" fill="#283447" /><rect x="647.013698630137" y="3474" width="3.254794520547945" height="19" rx="0" fill="#283447" /><rect x="654.2465753424658" y="3474" width="3.254794520547945" height="19" rx="0" fill="#283447" /><rect x="661.4794520547946" y="3474" width="6.50958904109589" height="19" rx="0" fill="#283447" /><rect x="668.7123287671234" y="3474" width="3.254794520547945" height="19" rx="0" fill="#283447" /><rect x="683.178082191781" y="3474" width="6.50958904109589" height="19" rx="0" fill="#283447" /><rect x="690.4109589041096" y="3474" width="3.254794520547945" height="19" rx="0" fill="#283447" /><rect x="697.6438356164384" y="3474" width="3.254794520547945" height="19" rx="0" fill="#283447" /><rect x="704.8767123287671" y="3474" width="6.50958904109589" height="19" rx="0" fill="#283447" /><rect x="719.3424657534247" y="3474" width="3.254794520547945" height="19" rx="0" fill="#283447" /><rect x="726.5753424657535" y="3474" width="6.50958904109589" height="19" rx="0" fill="#283447" /><rect x="733.8082191780823" y="3474" width="3.254794520547945" height="19" rx="0" fill="#283447" /><rect x="741.041095890411" y="3474" width="3.254794520547945" height="19" rx="0" fill="#283447" /><rect x="755.5068493150686" y="3474" width="3.254794520547945" height="19" rx="0" fill="#283447" /><rect x="762.7397260273973" y="3474" width="3.254794520547945" height="19" rx="0" fill="#283447" /><rect x="769.9726027397261" y="3474" width="6.50958904109589" height="19" rx="0" fill="#283447" /><rect x="777.2054794520549" y="3474" width="3.254794520547945" height="19" rx="0" fill="#283447" /><rect x="791.6712328767123" y="3474" width="6.50958904109589" height="19" rx="0" fill="#283447" /><rect x="798.9041095890411" y="3474" width="3.254794520547945" height="19" rx="0" fill="#283447" /><rect x="806.1369863013699" y="3474" width="3.254794520547945" height="19" rx="0" fill="#283447" /><rect x="813.3698630136987" y="3474" width="6.50958904109589" height="19" rx="0" fill="#283447" /><rect x="827.8356164383563" y="3474" width="3.254794520547945" height="19" rx="0" fill="#283447" /><rect x="835.0684931506851" y="3474" width="6.50958904109589" height="19" rx="0" fill="#283447" /><rect x="842.3013698630137" y="3474" width="3.254794520547945" height="19" rx="0" fill="#283447" /><rect x="849.5342465753424" y="3474" width="3.254794520547945" height="19" rx="0" fill="#283447" /></g></svg>