<svg xmlns="http://www.w3.org/2000/svg" width="1800" height="2700" viewBox="0 0 1800 2700"><g transform="translate(495 859.95) rotate(-1.2) translate(-378 -454.95000000000005)"><rect x="0" y="0" width="756" height="909.9000000000001" rx="0" fill="none" stroke="#fff0d5" stroke-width="4"/></g><g transform="translate(1314 859.95) rotate(1.2) translate(-378 -454.95000000000005)"><rect x="0" y="0" width="756" height="909.9000000000001" rx="0" fill="none" stroke="#fff0d5" stroke-width="4"/></g><g transform="translate(495 1899.45) rotate(1.2) translate(-378 -454.95000000000005)"><rect x="0" y="0" width="756" height="909.9000000000001" rx="0" fill="none" stroke="#fff0d5" stroke-width="4"/></g><g transform="translate(1314 1899.45) rotate(-1.2) translate(-378 -454.95000000000005)"><rect x="0" y="0" width="756" height="909.9000000000001" rx="0" fill="none" stroke="#fff0d5" stroke-width="4"/></g><defs><mask id="decor-safe" maskUnits="userSpaceOnUse" x="0" y="0" width="1800" height="2700"><rect width="1800" height="2700" fill="white"/><g transform="translate(495 859.95) rotate(-1.2) translate(-378 -454.95000000000005)"><rect x="0" y="0" width="756" height="909.9000000000001" rx="0" fill="black"/></g><g transform="translate(1314 859.95) rotate(1.2) translate(-378 -454.95000000000005)"><rect x="0" y="0" width="756" height="909.9000000000001" rx="0" fill="black"/></g><g transform="translate(495 1899.45) rotate(1.2) translate(-378 -454.95000000000005)"><rect x="0" y="0" width="756" height="909.9000000000001" rx="0" fill="black"/></g><g transform="translate(1314 1899.45) rotate(-1.2) translate(-378 -454.95000000000005)"><rect x="0" y="0" width="756" height="909.9000000000001" rx="0" fill="black"/></g><rect x="108" y="51.3" width="1584" height="94.50000000000001" fill="black"/><rect x="288" y="2478.6" width="1224" height="121.5" fill="black"/><rect x="270" y="2624.4" width="1260" height="48.599999999999994" fill="black"/></mask></defs><g mask="url(#decor-safe)"><defs><linearGradient id="motif-glaze" x1="0" y1="0" x2=".9" y2="1"><stop stop-color="#fff2e5"/><stop offset=".32" stop-color="#dc925b"/><stop offset="1" stop-color="#fff0d5" stop-opacity=".62"/></linearGradient><linearGradient id="secondary-glaze" x1="0" y1="0" x2="1" y2="1"><stop stop-color="#fff9ef"/><stop offset=".45" stop-color="#60595b"/><stop offset="1" stop-color="#dc925b"/></linearGradient><filter id="sticker-shadow" x="-.12" y="-.12" width="1.24" height="1.24"><feDropShadow dx="3" dy="5" stdDeviation="3" flood-color="#fff0d5" flood-opacity=".19"/></filter></defs><g filter="url(#sticker-shadow)"><g transform="translate(900 272.70000000000005) rotate(0) scale(1.92)"><rect x="-90" y="-88" width="180" height="176" rx="6" fill="#14141b" stroke="#dc925b" stroke-width="4"/><rect x="-82" y="-70" width="14" height="24" rx="2" fill="#fff9ed" /><rect x="68" y="-70" width="14" height="24" rx="2" fill="#fff9ed" /><rect x="-82" y="-26" width="14" height="24" rx="2" fill="#fff9ed" /><rect x="68" y="-26" width="14" height="24" rx="2" fill="#fff9ed" /><rect x="-82" y="18" width="14" height="24" rx="2" fill="#fff9ed" /><rect x="68" y="18" width="14" height="24" rx="2" fill="#fff9ed" /><rect x="-82" y="62" width="14" height="24" rx="2" fill="#fff9ed" /><rect x="68" y="62" width="14" height="24" rx="2" fill="#fff9ed" /><rect x="-52" y="-63" width="104" height="123" rx="3" fill="url(#secondary-glaze)" /><path d="M-40 37L-8 -2L12 16L42 -25" fill="none" stroke="#dc925b" stroke-width="6" stroke-linecap="round" stroke-linejoin="round" /><circle cx="23" cy="-35" r="13" fill="#fff9ed" stroke="none" stroke-width="5"/><text y="79" font-size="11" fill="#fff9ed" text-anchor="middle">35 MM / GOOD TIMES</text></g><g transform="translate(342 272.70000000000005) rotate(-24) scale(0.765)"><path d="M0 -83Q14 -14 83 0Q14 14 0 83Q-14 14 -83 0Q-14 -14 0 -83Z" fill="url(#motif-glaze)" stroke="#fff0d5" stroke-width="3" stroke-linecap="round" stroke-linejoin="round" /></g><g transform="translate(1458 272.70000000000005) rotate(24) scale(0.765)"><path d="M0 -83Q14 -14 83 0Q14 14 0 83Q-14 14 -83 0Q-14 -14 0 -83Z" fill="url(#secondary-glaze)" stroke="#fff0d5" stroke-width="3" stroke-linecap="round" stroke-linejoin="round" /></g><g transform="translate(450 1379.7) rotate(-22) scale(0.7405714285714292)"><rect x="-90" y="-88" width="180" height="176" rx="6" fill="#14141b" stroke="#dc925b" stroke-width="4"/><rect x="-82" y="-70" width="14" height="24" rx="2" fill="#fff9ed" /><rect x="68" y="-70" width="14" height="24" rx="2" fill="#fff9ed" /><rect x="-82" y="-26" width="14" height="24" rx="2" fill="#fff9ed" /><rect x="68" y="-26" width="14" height="24" rx="2" fill="#fff9ed" /><rect x="-82" y="18" width="14" height="24" rx="2" fill="#fff9ed" /><rect x="68" y="18" width="14" height="24" rx="2" fill="#fff9ed" /><rect x="-82" y="62" width="14" height="24" rx="2" fill="#fff9ed" /><rect x="68" y="62" width="14" height="24" rx="2" fill="#fff9ed" /><rect x="-52" y="-63" width="104" height="123" rx="3" fill="url(#secondary-glaze)" /><path d="M-40 37L-8 -2L12 16L42 -25" fill="none" stroke="#dc925b" stroke-width="6" stroke-linecap="round" stroke-linejoin="round" /><circle cx="23" cy="-35" r="13" fill="#fff9ed" stroke="none" stroke-width="5"/><text y="79" font-size="11" fill="#fff9ed" text-anchor="middle">35 MM / GOOD TIMES</text></g><g transform="translate(1332 1379.7) rotate(-11) scale(0.533211428571429)"><path d="M0 65C-15 45 -94 5 -83 -39C-73 -80 -18 -88 0 -47C18 -88 73 -80 83 -39C94 5 15 45 0 65Z" fill="url(#secondary-glaze)" stroke="#fff0d5" stroke-width="6" stroke-linecap="round" stroke-linejoin="round" /></g><path d="M720 1379.7Q900 1389.7 1062 1375.7" fill="none" stroke="#dc925b" stroke-width="6" stroke-linecap="round" stroke-linejoin="round" stroke-dasharray="6 9"/><g transform="translate(132 1314.8999999999999) rotate(-15) scale(1.5)"><rect x="-79" y="-22" width="158" height="44" rx="2" fill="url(#secondary-glaze)" stroke="#fff0d5" stroke-width="2" opacity=".86"/><path d="M-70 -7H65M-58 8H55" fill="none" stroke="#fff0d5" stroke-width="2" stroke-linecap="round" stroke-linejoin="round" opacity=".18"/></g><g transform="translate(873 1060.128) rotate(6) scale(0.39)"><path d="M0 -83Q14 -14 83 0Q14 14 0 83Q-14 14 -83 0Q-14 -14 0 -83Z" fill="#fff9ed" stroke="#dc925b" stroke-width="3" stroke-linecap="round" stroke-linejoin="round" /></g><g transform="translate(1677 1314.8999999999999) rotate(17) scale(1.5)"><rect x="-79" y="-22" width="158" height="44" rx="2" fill="url(#secondary-glaze)" stroke="#fff0d5" stroke-width="2" opacity=".86"/><path d="M-70 -7H65M-58 8H55" fill="none" stroke="#fff0d5" stroke-width="2" stroke-linecap="round" stroke-linejoin="round" opacity=".18"/></g><g transform="translate(936 1060.128) rotate(6) scale(0.39)"><path d="M0 -83Q14 -14 83 0Q14 14 0 83Q-14 14 -83 0Q-14 -14 0 -83Z" fill="#fff9ed" stroke="#dc925b" stroke-width="3" stroke-linecap="round" stroke-linejoin="round" /></g><g transform="translate(132 2354.4) rotate(-15) scale(1.5)"><rect x="-79" y="-22" width="158" height="44" rx="2" fill="url(#secondary-glaze)" stroke="#fff0d5" stroke-width="2" opacity=".86"/><path d="M-70 -7H65M-58 8H55" fill="none" stroke="#fff0d5" stroke-width="2" stroke-linecap="round" stroke-linejoin="round" opacity=".18"/></g><g transform="translate(873 2099.628) rotate(6) scale(0.39)"><path d="M0 -83Q14 -14 83 0Q14 14 0 83Q-14 14 -83 0Q-14 -14 0 -83Z" fill="#fff9ed" stroke="#dc925b" stroke-width="3" stroke-linecap="round" stroke-linejoin="round" /></g><g transform="translate(1677 2354.4) rotate(17) scale(1.5)"><rect x="-79" y="-22" width="158" height="44" rx="2" fill="url(#secondary-glaze)" stroke="#fff0d5" stroke-width="2" opacity=".86"/><path d="M-70 -7H65M-58 8H55" fill="none" stroke="#fff0d5" stroke-width="2" stroke-linecap="round" stroke-linejoin="round" opacity=".18"/></g><g transform="translate(936 2099.628) rotate(6) scale(0.39)"><path d="M0 -83Q14 -14 83 0Q14 14 0 83Q-14 14 -83 0Q-14 -14 0 -83Z" fill="#fff9ed" stroke="#dc925b" stroke-width="3" stroke-linecap="round" stroke-linejoin="round" /></g><g transform="translate(900 2424.6) rotate(0) scale(1.4249999999999998)"><rect x="-166" y="-45" width="332" height="90" rx="2" fill="#fff8ec" stroke="#dc925b" stroke-width="9" stroke-dasharray="9 7"/><text y="11" text-anchor="middle" font-family="Georgia,serif" font-style="italic" font-size="31" fill="#fff0d5">memories on film</text></g><g transform="translate(153 2551.5) rotate(-12) scale(0.63)"><rect x="-90" y="-88" width="180" height="176" rx="6" fill="#14141b" stroke="#dc925b" stroke-width="4"/><rect x="-82" y="-70" width="14" height="24" rx="2" fill="#fff9ed" /><rect x="68" y="-70" width="14" height="24" rx="2" fill="#fff9ed" /><rect x="-82" y="-26" width="14" height="24" rx="2" fill="#fff9ed" /><rect x="68" y="-26" width="14" height="24" rx="2" fill="#fff9ed" /><rect x="-82" y="18" width="14" height="24" rx="2" fill="#fff9ed" /><rect x="68" y="18" width="14" height="24" rx="2" fill="#fff9ed" /><rect x="-82" y="62" width="14" height="24" rx="2" fill="#fff9ed" /><rect x="68" y="62" width="14" height="24" rx="2" fill="#fff9ed" /><rect x="-52" y="-63" width="104" height="123" rx="3" fill="url(#secondary-glaze)" /><path d="M-40 37L-8 -2L12 16L42 -25" fill="none" stroke="#dc925b" stroke-width="6" stroke-linecap="round" stroke-linejoin="round" /><circle cx="23" cy="-35" r="13" fill="#fff9ed" stroke="none" stroke-width="5"/><text y="79" font-size="11" fill="#fff9ed" text-anchor="middle">35 MM / GOOD TIMES</text></g><g transform="translate(1647 2551.5) rotate(12) scale(0.63)"><rect x="-90" y="-88" width="180" height="176" rx="6" fill="#14141b" stroke="#dc925b" stroke-width="4"/><rect x="-82" y="-70" width="14" height="24" rx="2" fill="#fff9ed" /><rect x="68" y="-70" width="14" height="24" rx="2" fill="#fff9ed" /><rect x="-82" y="-26" width="14" height="24" rx="2" fill="#fff9ed" /><rect x="68" y="-26" width="14" height="24" rx="2" fill="#fff9ed" /><rect x="-82" y="18" width="14" height="24" rx="2" fill="#fff9ed" /><rect x="68" y="18" width="14" height="24" rx="2" fill="#fff9ed" /><rect x="-82" y="62" width="14" height="24" rx="2" fill="#fff9ed" /><rect x="68" y="62" width="14" height="24" rx="2" fill="#fff9ed" /><rect x="-52" y="-63" width="104" height="123" rx="3" fill="url(#secondary-glaze)" /><path d="M-40 37L-8 -2L12 16L42 -25" fill="none" stroke="#dc925b" stroke-width="6" stroke-linecap="round" stroke-linejoin="round" /><circle cx="23" cy="-35" r="13" fill="#fff9ed" stroke="none" stroke-width="5"/><text y="79" font-size="11" fill="#fff9ed" text-anchor="middle">35 MM / GOOD TIMES</text></g></g></g></svg>