<svg xmlns="http://www.w3.org/2000/svg" width="1200" height="3600" viewBox="0 0 1200 3600"><rect width="1200" height="3600" fill="#a2b881"/><defs><linearGradient id="paper-wash" x1="0" y1="0" x2="1" y2="1"><stop stop-color="#a2b881"/><stop offset=".6" stop-color="#a2b881"/><stop offset="1" stop-color="#fff3d9"/></linearGradient><pattern id="paper-grain" width="29" height="23" patternUnits="userSpaceOnUse"><circle cx="3" cy="6" r="0.9" fill="#5d4c35" stroke="none" stroke-width="5"/><path d="M12 19h4" fill="none" stroke="#5d4c35" stroke-width="0.7" stroke-linecap="round" stroke-linejoin="round" /></pattern></defs><rect x="0" y="0" width="1200" height="3600" rx="0" fill="url(#paper-wash)" /><rect x="0" y="0" width="1200" height="3600" rx="0" fill="url(#paper-grain)" opacity=".075"/><defs><pattern id="checks" width="240" height="240" patternUnits="userSpaceOnUse"><rect x="0" y="0" width="120" height="120" rx="0" fill="#d39475" /><rect x="120" y="120" width="120" height="120" rx="0" fill="#d39475" /></pattern></defs><rect x="0" y="0" width="1200" height="3600" rx="0" fill="url(#checks)" opacity=".16"/><rect x="180" y="3290.4" width="840" height="187.2" rx="14" fill="#fff9ef" opacity=".95"/><g transform="translate(9 15)" opacity=".18"><g transform="translate(600 838.8) rotate(0) translate(-504 -298.8)"><rect x="0" y="0" width="1008" height="597.6" rx="22" fill="none" stroke="#5d4c35" stroke-width="80"/></g><g transform="translate(600 1512) rotate(0) translate(-504 -298.8)"><rect x="0" y="0" width="1008" height="597.6" rx="22" fill="none" stroke="#5d4c35" stroke-width="80"/></g><g transform="translate(600 2185.2000000000003) rotate(0) translate(-504 -298.8)"><rect x="0" y="0" width="1008" height="597.6" rx="22" fill="none" stroke="#5d4c35" stroke-width="80"/></g><g transform="translate(600 2858.4) rotate(0) translate(-504 -298.8)"><rect x="0" y="0" width="1008" height="597.6" rx="22" fill="none" stroke="#5d4c35" stroke-width="80"/></g></g><g transform="translate(600 838.8) rotate(0) translate(-504 -298.8)"><rect x="0" y="0" width="1008" height="597.6" rx="22" fill="none" stroke="#d39475" stroke-width="76"/></g><g transform="translate(600 1512) rotate(0) translate(-504 -298.8)"><rect x="0" y="0" width="1008" height="597.6" rx="22" fill="none" stroke="#d39475" stroke-width="76"/></g><g transform="translate(600 2185.2000000000003) rotate(0) translate(-504 -298.8)"><rect x="0" y="0" width="1008" height="597.6" rx="22" fill="none" stroke="#d39475" stroke-width="76"/></g><g transform="translate(600 2858.4) rotate(0) translate(-504 -298.8)"><rect x="0" y="0" width="1008" height="597.6" rx="22" fill="none" stroke="#d39475" stroke-width="76"/></g><g transform="translate(600 838.8) rotate(0) translate(-504 -298.8)"><rect x="0" y="0" width="1008" height="597.6" rx="22" fill="none" stroke="#fff9ef" stroke-width="53"/></g><g transform="translate(600 1512) rotate(0) translate(-504 -298.8)"><rect x="0" y="0" width="1008" height="597.6" rx="22" fill="none" stroke="#fff9ef" stroke-width="53"/></g><g transform="translate(600 2185.2000000000003) rotate(0) translate(-504 -298.8)"><rect x="0" y="0" width="1008" height="597.6" rx="22" fill="none" stroke="#fff9ef" stroke-width="53"/></g><g transform="translate(600 2858.4) rotate(0) translate(-504 -298.8)"><rect x="0" y="0" width="1008" height="597.6" rx="22" fill="none" stroke="#fff9ef" stroke-width="53"/></g></svg>