<svg xmlns="http://www.w3.org/2000/svg" width="1200" height="3600" viewBox="0 0 1200 3600"><defs><mask id="signature-safe" maskUnits="userSpaceOnUse" x="0" y="0" width="1200" height="3600"><rect x="0" y="0" width="1200" height="3600" rx="0" fill="white" /><g transform="translate(600 954) rotate(-1.3) translate(-516 -396)"><rect x="0" y="0" width="1032" height="792" rx="45" fill="black"/></g><g transform="translate(612 1854) rotate(1.2) translate(-498 -396)"><rect x="0" y="0" width="996" height="792" rx="70" fill="black"/></g><g transform="translate(600 2754) rotate(-1) translate(-528 -396)"><rect x="0" y="0" width="1056" height="792" rx="35" fill="black"/></g><rect x="144" y="226.8" width="912" height="129.6" rx="0" fill="black" /><rect x="192" y="3304.8" width="816.0000000000001" height="162" rx="0" fill="black" /><rect x="180" y="3499.2" width="840" height="64.8" rx="0" fill="black" /></mask></defs><g mask="url(#signature-safe)"><defs>
 <linearGradient id="sig-gold" x2=".7" y2="1"><stop stop-color="#73482c"/><stop offset=".2" stop-color="#e2b862"/><stop offset=".45" stop-color="#fff0aa"/><stop offset=".64" stop-color="#b9823c"/><stop offset=".82" stop-color="#ffe7a0"/><stop offset="1" stop-color="#8b5a27"/></linearGradient>
 <linearGradient id="sig-chrome" x1="0" y1="0" x2=".8" y2="1"><stop stop-color="#faf5ff"/><stop offset=".22" stop-color="#81709f"/><stop offset=".4" stop-color="#fbf7ff"/><stop offset=".53" stop-color="#aacbde"/><stop offset=".7" stop-color="#614c80"/><stop offset=".88" stop-color="#ead8ef"/><stop offset="1" stop-color="#b6a4d3"/></linearGradient>
 <linearGradient id="sig-satin" x2="1" y2=".8"><stop stop-color="#f3b7b2"/><stop offset=".2" stop-color="#a92644"/><stop offset=".4" stop-color="#e9a3a8"/><stop offset=".65" stop-color="#941f39"/><stop offset="1" stop-color="#cf5e74"/></linearGradient>
 <radialGradient id="sig-night"><stop stop-color="#674380"/><stop offset=".62" stop-color="#281b40"/><stop offset="1" stop-color="#100e1e"/></radialGradient>
 <pattern id="sig-speckles" width="59" height="71" patternUnits="userSpaceOnUse"><circle cx="7" cy="19" r="2" fill="#fbecd0" opacity=".18"/><circle cx="41" cy="49" r="1.5" fill="#ffffff" opacity=".15"/><path d="M22 38l5 -2" stroke="#fff" opacity=".12"/></pattern>
 <pattern id="sig-halftone" width="42" height="42" patternUnits="userSpaceOnUse"><circle cx="21" cy="21" r="7" fill="#76b6d8" opacity=".24"/></pattern>
 <pattern id="sig-romance-stripe" width="92" height="92" patternUnits="userSpaceOnUse"><rect width="92" height="92" fill="#f7ebdd"/><rect width="24" height="92" fill="#a02640"/><path d="M36 0V92M54 0V92" stroke="#cc8889" stroke-width="2"/></pattern>
 <filter id="sig-shadow" x="-.15" y="-.15" width="1.3" height="1.3"><feDropShadow dx="8" dy="14" stdDeviation="8" flood-color="#201022" flood-opacity=".28"/></filter>
 <filter id="sig-bulb" x="-.6" y="-.6" width="2.2" height="2.2"><feGaussianBlur stdDeviation="6"/></filter>
 </defs><text x="600" y="464.40000000000003" text-anchor="middle" font-family="Georgia,serif" font-size="25" fill="#594079" letter-spacing="6">ENCORE / ALL ACCESS</text><g transform="translate(852 1411.2) rotate(7) scale(1)"><rect x="-99" y="-28" width="198" height="56" rx="8" fill="url(#sig-chrome)" stroke="#655083" stroke-width="2"/><text x="0" y="9" text-anchor="middle" font-family="Georgia,serif" font-size="24" fill="#39294e" >OUR ERA</text></g><path d="M57.6 1653Q63.45 1686.15 96.6 1692Q63.45 1697.85 57.6 1731Q51.75 1697.85 18.6 1692Q51.75 1686.15 57.6 1653Z" fill="#fff9ff"/><path d="M1123.2 2430Q1131.3 2475.9 1177.2 2484Q1131.3 2492.1 1123.2 2538Q1115.1000000000001 2492.1 1069.2 2484Q1115.1000000000001 2475.9 1123.2 2430Z" fill="#fff9ff"/><text x="600" y="3265.2000000000003" text-anchor="middle" font-family="Georgia,serif" font-size="25" fill="#463161" letter-spacing="5">YOU ARE THE MOMENT</text></g></svg>