<svg xmlns="http://www.w3.org/2000/svg" width="1200" height="3600" viewBox="0 0 1200 3600"><rect width="1200" height="3600" fill="#fcf0bd"/><defs><linearGradient id="paper-wash" x1="0" y1="0" x2="1" y2="1"><stop stop-color="#fcf0bd"/><stop offset=".6" stop-color="#fcf0bd"/><stop offset="1" stop-color="#a9b5de"/></linearGradient><pattern id="paper-grain" width="29" height="23" patternUnits="userSpaceOnUse"><circle cx="3" cy="6" r="0.9" fill="#574654" stroke="none" stroke-width="5"/><path d="M12 19h4" fill="none" stroke="#574654" stroke-width="0.7" stroke-linecap="round" stroke-linejoin="round" /></pattern></defs><rect x="0" y="0" width="1200" height="3600" rx="0" fill="url(#paper-wash)" /><rect x="0" y="0" width="1200" height="3600" rx="0" fill="url(#paper-grain)" opacity=".075"/><defs><pattern id="checks" width="240" height="240" patternUnits="userSpaceOnUse"><rect x="0" y="0" width="120" height="120" rx="0" fill="#e89a9e" /><rect x="120" y="120" width="120" height="120" rx="0" fill="#e89a9e" /></pattern></defs><rect x="0" y="0" width="1200" height="3600" rx="0" fill="url(#checks)" opacity=".11"/><rect x="180" y="3290.4" width="840" height="187.2" rx="14" fill="#fff9ef" opacity=".95"/><g transform="translate(9 15)" opacity=".18"><g transform="translate(600 954) rotate(-1.3) translate(-516 -396)"><rect x="0" y="0" width="1032" height="792" rx="45" fill="none" stroke="#574654" stroke-width="80"/></g><g transform="translate(612 1854) rotate(1.2) translate(-498 -396)"><rect x="0" y="0" width="996" height="792" rx="70" fill="none" stroke="#574654" stroke-width="80"/></g><g transform="translate(600 2754) rotate(-1) translate(-528 -396)"><rect x="0" y="0" width="1056" height="792" rx="35" fill="none" stroke="#574654" stroke-width="80"/></g></g><g transform="translate(600 954) rotate(-1.3) translate(-516 -396)"><rect x="0" y="0" width="1032" height="792" rx="45" fill="none" stroke="#e89a9e" stroke-width="76"/></g><g transform="translate(612 1854) rotate(1.2) translate(-498 -396)"><rect x="0" y="0" width="996" height="792" rx="70" fill="none" stroke="#e89a9e" stroke-width="76"/></g><g transform="translate(600 2754) rotate(-1) translate(-528 -396)"><rect x="0" y="0" width="1056" height="792" rx="35" fill="none" stroke="#e89a9e" stroke-width="76"/></g><g transform="translate(600 954) rotate(-1.3) translate(-516 -396)"><rect x="0" y="0" width="1032" height="792" rx="45" fill="none" stroke="#fff9ef" stroke-width="53"/></g><g transform="translate(612 1854) rotate(1.2) translate(-498 -396)"><rect x="0" y="0" width="996" height="792" rx="70" fill="none" stroke="#fff9ef" stroke-width="53"/></g><g transform="translate(600 2754) rotate(-1) translate(-528 -396)"><rect x="0" y="0" width="1056" height="792" rx="35" fill="none" stroke="#fff9ef" stroke-width="53"/></g><defs>
    <pattern id="print-fibers" width="79" height="67" patternUnits="userSpaceOnUse">
      <path d="M5 11l9 -2M38 45l6 2M66 23l4 -1" stroke="#574654" stroke-width=".7" opacity=".12"/>
      <path d="M17 38l8 1M51 8l7 -2M63 59l6 1" stroke="#ffffff" stroke-width="1.2" opacity=".55"/>
      <circle cx="31" cy="21" r=".8" fill="#574654" opacity=".1"/>
      <circle cx="72" cy="44" r="1.1" fill="#ffffff" opacity=".5"/>
    </pattern>
    <linearGradient id="print-light" x1="0" y1="0" x2="1" y2="1">
      <stop stop-color="#ffffff" stop-opacity=".08"/>
      <stop offset=".6" stop-color="#ffffff" stop-opacity="0"/>
      <stop offset="1" stop-color="#574654" stop-opacity=".035"/>
    </linearGradient>
  </defs>
  <rect width="1200" height="3600" fill="url(#print-light)"/>
  <rect width="1200" height="3600" fill="url(#print-fibers)"/>
  <rect x="13.2" y="13.2" width="1173.6" height="3573.6" fill="none" stroke="#fffcf7" stroke-width="26.4"/>
  <rect x="28.4" y="28.4" width="1143.2" height="3543.2" fill="none" stroke="#574654" stroke-width="1.2" opacity=".16"/></svg>