<svg xmlns="http://www.w3.org/2000/svg" width="1800" height="2700" viewBox="0 0 1800 2700"><rect width="1800" height="2700" fill="#ffe869"/><defs><pattern id="dots" width="32" height="32" patternUnits="userSpaceOnUse"><circle cx="8" cy="8" r="5" fill="#25243e"/></pattern></defs><rect width="1800" height="2700" fill="url(#dots)" opacity=".12"/><path d="M900 1350L3900 1350" fill="none" stroke="#ff705a" stroke-width="9" stroke-linecap="round" stroke-linejoin="round"/><path d="M900 1350L3778.4789208434922 2195.197670524289" fill="none" stroke="#ff705a" stroke-width="9" stroke-linecap="round" stroke-linejoin="round"/><path d="M900 1350L3423.7605984935435 2971.9224523667926" fill="none" stroke="#ff705a" stroke-width="9" stroke-linecap="round" stroke-linejoin="round"/><path d="M900 1350L2864.5822018358554 3617.248723062775" fill="none" stroke="#ff705a" stroke-width="9" stroke-linecap="round" stroke-linejoin="round"/><path d="M900 1350L2146.2450390056592 4078.895986063555" fill="none" stroke="#ff705a" stroke-width="9" stroke-linecap="round" stroke-linejoin="round"/><path d="M900 1350L1326.9445148198554 4319.464325642798" fill="none" stroke="#ff705a" stroke-width="9" stroke-linecap="round" stroke-linejoin="round"/><path d="M900 1350L473.055485180145 4319.464325642799" fill="none" stroke="#ff705a" stroke-width="9" stroke-linecap="round" stroke-linejoin="round"/><path d="M900 1350L-346.245039005659 4078.8959860635555" fill="none" stroke="#ff705a" stroke-width="9" stroke-linecap="round" stroke-linejoin="round"/><path d="M900 1350L-1064.582201835855 3617.2487230627753" fill="none" stroke="#ff705a" stroke-width="9" stroke-linecap="round" stroke-linejoin="round"/><path d="M900 1350L-1623.760598493543 2971.9224523667936" fill="none" stroke="#ff705a" stroke-width="9" stroke-linecap="round" stroke-linejoin="round"/><path d="M900 1350L-1978.4789208434922 2195.197670524289" fill="none" stroke="#ff705a" stroke-width="9" stroke-linecap="round" stroke-linejoin="round"/><path d="M900 1350L-2100 1350.0000000000016" fill="none" stroke="#ff705a" stroke-width="9" stroke-linecap="round" stroke-linejoin="round"/><path d="M900 1350L-1978.4789208434922 504.8023294757119" fill="none" stroke="#ff705a" stroke-width="9" stroke-linecap="round" stroke-linejoin="round"/><path d="M900 1350L-1623.7605984935435 -271.92245236679264" fill="none" stroke="#ff705a" stroke-width="9" stroke-linecap="round" stroke-linejoin="round"/><path d="M900 1350L-1064.5822018358556 -917.2487230627744" fill="none" stroke="#ff705a" stroke-width="9" stroke-linecap="round" stroke-linejoin="round"/><path d="M900 1350L-346.2450390056615 -1378.8959860635541" fill="none" stroke="#ff705a" stroke-width="9" stroke-linecap="round" stroke-linejoin="round"/><path d="M900 1350L473.05548518014433 -1619.464325642798" fill="none" stroke="#ff705a" stroke-width="9" stroke-linecap="round" stroke-linejoin="round"/><path d="M900 1350L1326.9445148198547 -1619.4643256427985" fill="none" stroke="#ff705a" stroke-width="9" stroke-linecap="round" stroke-linejoin="round"/><path d="M900 1350L2146.2450390056583 -1378.8959860635555" fill="none" stroke="#ff705a" stroke-width="9" stroke-linecap="round" stroke-linejoin="round"/><path d="M900 1350L2864.5822018358535 -917.2487230627762" fill="none" stroke="#ff705a" stroke-width="9" stroke-linecap="round" stroke-linejoin="round"/><path d="M900 1350L3423.7605984935435 -271.9224523667924" fill="none" stroke="#ff705a" stroke-width="9" stroke-linecap="round" stroke-linejoin="round"/><path d="M900 1350L3778.4789208434922 504.8023294757106" fill="none" stroke="#ff705a" stroke-width="9" stroke-linecap="round" stroke-linejoin="round"/><g transform="translate(900 735.75) rotate(-1.3) translate(-801 -452.25)"><rect x="0" y="0" width="1602" height="904.5" rx="0" fill="none" stroke="#ff705a" stroke-width="64"/></g><g transform="translate(472.5 1842.75) rotate(2) translate(-364.5 -519.75)"><rect x="0" y="0" width="729" height="1039.5" rx="0" fill="none" stroke="#ff705a" stroke-width="64"/></g><g transform="translate(1327.5 1842.75) rotate(-2) translate(-364.5 -519.75)"><rect x="0" y="0" width="729" height="1039.5" rx="0" fill="none" stroke="#ff705a" stroke-width="64"/></g><g transform="translate(900 735.75) rotate(-1.3) translate(-801 -452.25)"><rect x="0" y="0" width="1602" height="904.5" rx="0" fill="none" stroke="#fffdf7" stroke-width="40"/></g><g transform="translate(472.5 1842.75) rotate(2) translate(-364.5 -519.75)"><rect x="0" y="0" width="729" height="1039.5" rx="0" fill="none" stroke="#fffdf7" stroke-width="40"/></g><g transform="translate(1327.5 1842.75) rotate(-2) translate(-364.5 -519.75)"><rect x="0" y="0" width="729" height="1039.5" rx="0" fill="none" stroke="#fffdf7" stroke-width="40"/></g></svg>