<svg xmlns="http://www.w3.org/2000/svg" width="1200" height="3600" viewBox="0 0 1200 3600"><g transform="translate(600 837) rotate(0) translate(-516 -423)"><rect x="0" y="0" width="1032" height="846" rx="150" fill="none" stroke="#553a30" stroke-width="20"/></g><g transform="translate(600 1809) rotate(2) translate(-540 -405)"><rect x="0" y="0" width="1080" height="810" rx="65" fill="none" stroke="#553a30" stroke-width="20"/></g><g transform="translate(600 2745) rotate(-2) translate(-491.99999999999994 -405)"><rect x="0" y="0" width="983.9999999999999" height="810" rx="110" fill="none" stroke="#553a30" stroke-width="20"/></g><defs><mask id="decor-safe" maskUnits="userSpaceOnUse" x="0" y="0" width="1200" height="3600"><rect width="1200" height="3600" fill="white"/><g transform="translate(600 837) rotate(0) translate(-516 -423)"><rect x="0" y="0" width="1032" height="846" rx="150" fill="black"/></g><g transform="translate(600 1809) rotate(2) translate(-540 -405)"><rect x="0" y="0" width="1080" height="810" rx="65" fill="black"/></g><g transform="translate(600 2745) rotate(-2) translate(-491.99999999999994 -405)"><rect x="0" y="0" width="983.9999999999999" height="810" rx="110" fill="black"/></g></mask></defs><g mask="url(#decor-safe)"><g transform="translate(590 296) rotate(-6) scale(1.48)"><g stroke-linecap="round" stroke-linejoin="round"><path d="M-77 -24L-77 -83L-33 -54Q0 -63 34 -54L78 -83L77 -24Q105 70 0 73Q-104 71 -77 -24Z" fill="#f89a61" stroke="#553a30" stroke-width="8" stroke-linejoin="round"/><path d="M-64 -55l2 -12l14 15Z" fill="#ffc9bd" stroke="#553a30" stroke-width="8" stroke-linejoin="round"/><path d="M64 -55l-2 -12l-14 15Z" fill="#ffc9bd" stroke="#553a30" stroke-width="8" stroke-linejoin="round"/><circle cx="-30" cy="-6" r="7" fill="#553a30"/><circle cx="30" cy="-6" r="7" fill="#553a30"/><path d="M-9 12H9L0 21Z" fill="#f07983" stroke="#553a30" stroke-width="8" stroke-linejoin="round"/><path d="M0 23q-12 20 -26 5M0 23q12 20 26 5M-57 12l-38 -7M-57 30l-35 10M57 12l38 -7M57 30l35 10M-15 -50l7 17M15 -50l-7 17" fill="none" stroke="#553a30" stroke-width="6" stroke-linecap="round" stroke-linejoin="round"/></g></g><g transform="translate(245 302) rotate(-25) scale(1.25)"><g stroke-linecap="round" stroke-linejoin="round"><ellipse cx="0" cy="18" rx="27" ry="22" fill="#f89a61"/><ellipse cx="-32" cy="-8" rx="10" ry="14" fill="#f89a61"/><ellipse cx="-11" cy="-22" rx="10" ry="14" fill="#f89a61"/><ellipse cx="13" cy="-22" rx="10" ry="14" fill="#f89a61"/><ellipse cx="33" cy="-8" rx="10" ry="14" fill="#f89a61"/><path d="M-12 24q12 8 24 0" fill="none" stroke="#553a30" stroke-width="3" stroke-linecap="round" stroke-linejoin="round"/></g></g><g transform="translate(960 287) rotate(22) scale(1.1)"><g stroke-linecap="round" stroke-linejoin="round"><ellipse cx="0" cy="18" rx="27" ry="22" fill="#f89a61"/><ellipse cx="-32" cy="-8" rx="10" ry="14" fill="#f89a61"/><ellipse cx="-11" cy="-22" rx="10" ry="14" fill="#f89a61"/><ellipse cx="13" cy="-22" rx="10" ry="14" fill="#f89a61"/><ellipse cx="33" cy="-8" rx="10" ry="14" fill="#f89a61"/><path d="M-12 24q12 8 24 0" fill="none" stroke="#553a30" stroke-width="3" stroke-linecap="round" stroke-linejoin="round"/></g></g><g transform="translate(284 1335) rotate(-7) scale(0.9)"><g stroke-linecap="round" stroke-linejoin="round"><rect x="-130" y="-42" width="260" height="84" rx="42" fill="#b7d5c9" stroke="#553a30" stroke-width="7"/><text x="0" y="17" text-anchor="middle" font-family="sans-serif" font-weight="900" font-size="46" fill="#553a30">MEOW!</text></g></g><g transform="translate(967 1320) rotate(22) scale(1.2)"><g stroke-linecap="round" stroke-linejoin="round"><ellipse cx="0" cy="18" rx="27" ry="22" fill="#f89a61"/><ellipse cx="-32" cy="-8" rx="10" ry="14" fill="#f89a61"/><ellipse cx="-11" cy="-22" rx="10" ry="14" fill="#f89a61"/><ellipse cx="13" cy="-22" rx="10" ry="14" fill="#f89a61"/><ellipse cx="33" cy="-8" rx="10" ry="14" fill="#f89a61"/><path d="M-12 24q12 8 24 0" fill="none" stroke="#553a30" stroke-width="3" stroke-linecap="round" stroke-linejoin="round"/></g></g><g transform="translate(866 2260) rotate(10) scale(0.8)"><g stroke-linecap="round" stroke-linejoin="round"><path d="M-65 0Q-8 -57 51 0Q-8 57 -65 0L-93 -33V33Z" fill="#b7d5c9" stroke="#553a30" stroke-width="8" stroke-linejoin="round"/><circle cx="24" cy="-4" r="6" fill="#553a30"/></g></g><g transform="translate(287 2247) rotate(-20) scale(0.82)"><g stroke-linecap="round" stroke-linejoin="round"><path d="M0 43L-42 3Q-63 -23 -32 -38Q-10 -49 0 -24Q10 -49 32 -38Q63 -23 42 3Z" fill="#f89a61" stroke="#553a30" stroke-width="8" stroke-linejoin="round"/></g></g><g transform="translate(600 3210) rotate(2) scale(0.84)"><g stroke-linecap="round" stroke-linejoin="round"><rect x="-265" y="-42" width="530" height="84" rx="42" fill="#fffdf2" stroke="#553a30" stroke-width="7"/><text x="0" y="17" text-anchor="middle" font-family="sans-serif" font-weight="900" font-size="46" fill="#553a30">purrfect together</text></g></g></g></svg>