<svg xmlns="http://www.w3.org/2000/svg" width="1200" height="3600" viewBox="0 0 1200 3600"><g transform="translate(600 837) rotate(0) translate(-528 -405)"><rect x="0" y="0" width="1056" height="810" rx="125" fill="none" stroke="#51364f" stroke-width="20"/></g><g transform="translate(600 1773) rotate(0) translate(-504 -405)"><rect x="0" y="0" width="1008" height="810" rx="180" fill="none" stroke="#51364f" stroke-width="20"/></g><g transform="translate(600 2709) rotate(0) translate(-540 -405)"><rect x="0" y="0" width="1080" height="810" rx="90" fill="none" stroke="#51364f" stroke-width="20"/></g><defs><mask id="decor-safe" maskUnits="userSpaceOnUse" x="0" y="0" width="1200" height="3600"><rect width="1200" height="3600" fill="white"/><g transform="translate(600 837) rotate(0) translate(-528 -405)"><rect x="0" y="0" width="1056" height="810" rx="125" fill="black"/></g><g transform="translate(600 1773) rotate(0) translate(-504 -405)"><rect x="0" y="0" width="1008" height="810" rx="180" fill="black"/></g><g transform="translate(600 2709) rotate(0) translate(-540 -405)"><rect x="0" y="0" width="1080" height="810" rx="90" fill="black"/></g></mask></defs><g mask="url(#decor-safe)"><g transform="translate(270 298) rotate(-10) scale(1.35)"><g stroke-linecap="round" stroke-linejoin="round"><path d="M-83 27Q-95 -7 -59 -48Q-18 -90 33 -57Q86 -34 85 23Q87 65 0 65Q-72 64 -83 27Z" fill="#fffef4" stroke="#51364f" stroke-width="8" stroke-linejoin="round"/><circle cx="-25" cy="-8" r="7" fill="#51364f"/><circle cx="25" cy="-8" r="7" fill="#51364f"/><path d="M-16 16q16 20 32 0" fill="none" stroke="#51364f" stroke-width="6" stroke-linecap="round" stroke-linejoin="round"/><ellipse cx="-45" cy="12" rx="13" ry="8" fill="#ff9cb5"/><ellipse cx="45" cy="12" rx="13" ry="8" fill="#ff9cb5"/><path d="M-72 32q-28 -13 -32 4M74 30q24 -16 31 -1" fill="none" stroke="#51364f" stroke-width="7" stroke-linecap="round" stroke-linejoin="round"/></g></g><g transform="translate(605 292) rotate(7) scale(1.45)"><g stroke-linecap="round" stroke-linejoin="round"><path d="M-83 27Q-95 -7 -59 -48Q-18 -90 33 -57Q86 -34 85 23Q87 65 0 65Q-72 64 -83 27Z" fill="#b5b9ef" stroke="#51364f" stroke-width="8" stroke-linejoin="round"/><path d="M-33 -6l12 -7l12 7" fill="none" stroke="#51364f" stroke-width="7" stroke-linecap="round" stroke-linejoin="round"/><circle cx="25" cy="-8" r="7" fill="#51364f"/><path d="M-16 16q16 20 32 0" fill="none" stroke="#51364f" stroke-width="6" stroke-linecap="round" stroke-linejoin="round"/><ellipse cx="-45" cy="12" rx="13" ry="8" fill="#ff9cb5"/><ellipse cx="45" cy="12" rx="13" ry="8" fill="#ff9cb5"/><path d="M-72 32q-28 -13 -32 4M74 30q24 -16 31 -1" fill="none" stroke="#51364f" stroke-width="7" stroke-linecap="round" stroke-linejoin="round"/></g></g><g transform="translate(950 304) rotate(-7) scale(1.3)"><g stroke-linecap="round" stroke-linejoin="round"><path d="M-83 27Q-95 -7 -59 -48Q-18 -90 33 -57Q86 -34 85 23Q87 65 0 65Q-72 64 -83 27Z" fill="#ffaacb" stroke="#51364f" stroke-width="8" stroke-linejoin="round"/><circle cx="-25" cy="-8" r="7" fill="#51364f"/><circle cx="25" cy="-8" r="7" fill="#51364f"/><path d="M-16 16q16 20 32 0" fill="none" stroke="#51364f" stroke-width="6" stroke-linecap="round" stroke-linejoin="round"/><ellipse cx="-45" cy="12" rx="13" ry="8" fill="#ff9cb5"/><ellipse cx="45" cy="12" rx="13" ry="8" fill="#ff9cb5"/><path d="M-72 32q-28 -13 -32 4M74 30q24 -16 31 -1" fill="none" stroke="#51364f" stroke-width="7" stroke-linecap="round" stroke-linejoin="round"/></g></g><g transform="translate(174 1305) rotate(-18) scale(0.86)"><g stroke-linecap="round" stroke-linejoin="round"><path d="M0 43L-42 3Q-63 -23 -32 -38Q-10 -49 0 -24Q10 -49 32 -38Q63 -23 42 3Z" fill="#ff8eb8" stroke="#51364f" stroke-width="8" stroke-linejoin="round"/></g></g><g transform="translate(720 1304) rotate(4) scale(0.9)"><g stroke-linecap="round" stroke-linejoin="round"><rect x="-143" y="-42" width="286" height="84" rx="42" fill="#fffdf2" stroke="#51364f" stroke-width="7"/><text x="0" y="17" text-anchor="middle" font-family="sans-serif" font-weight="900" font-size="46" fill="#51364f">SO CUTE</text></g></g><g transform="translate(995 2246) rotate(12) scale(0.76)"><g stroke-linecap="round" stroke-linejoin="round"><ellipse cx="0" cy="-39" rx="23" ry="34" fill="#fffdf2" stroke="#51364f" stroke-width="6" transform="rotate(0)"/><ellipse cx="0" cy="-39" rx="23" ry="34" fill="#fffdf2" stroke="#51364f" stroke-width="6" transform="rotate(60)"/><ellipse cx="0" cy="-39" rx="23" ry="34" fill="#fffdf2" stroke="#51364f" stroke-width="6" transform="rotate(120)"/><ellipse cx="0" cy="-39" rx="23" ry="34" fill="#fffdf2" stroke="#51364f" stroke-width="6" transform="rotate(180)"/><ellipse cx="0" cy="-39" rx="23" ry="34" fill="#fffdf2" stroke="#51364f" stroke-width="6" transform="rotate(240)"/><ellipse cx="0" cy="-39" rx="23" ry="34" fill="#fffdf2" stroke="#51364f" stroke-width="6" transform="rotate(300)"/><circle r="26" fill="#ffe887" stroke="#51364f" stroke-width="6"/><g transform="translate(0 0) rotate(0) scale(0.35)"><circle cx="-25" cy="-8" r="7" fill="#51364f"/><circle cx="25" cy="-8" r="7" fill="#51364f"/><path d="M-16 16q16 20 32 0" fill="none" stroke="#51364f" stroke-width="6" stroke-linecap="round" stroke-linejoin="round"/><ellipse cx="-45" cy="12" rx="13" ry="8" fill="#ff9cb5"/><ellipse cx="45" cy="12" rx="13" ry="8" fill="#ff9cb5"/></g></g></g><g transform="translate(290 2253) rotate(10) scale(0.82)"><g stroke-linecap="round" stroke-linejoin="round"><path d="M0 43L-42 3Q-63 -23 -32 -38Q-10 -49 0 -24Q10 -49 32 -38Q63 -23 42 3Z" fill="#b5b9ef" stroke="#51364f" stroke-width="8" stroke-linejoin="round"/></g></g><g transform="translate(600 3190) rotate(-2) scale(0.9)"><g stroke-linecap="round" stroke-linejoin="round"><rect x="-295" y="-42" width="590" height="84" rx="42" fill="#fffdf2" stroke="#51364f" stroke-width="7"/><text x="0" y="17" text-anchor="middle" font-family="sans-serif" font-weight="900" font-size="46" fill="#51364f">tiny happy moments</text></g></g></g></svg>