<svg xmlns="http://www.w3.org/2000/svg" width="800" height="1000" viewBox="0 0 800 1000"><rect width="800" height="1000" fill="#c5cbf0"/><path d="M0 700Q400 610 800 700V1000H0Z" fill="#dec642"/><ellipse cx="400" cy="430" rx="220" ry="250" fill="#25272d"/><rect x="340" y="570" width="120" height="170" rx="50" fill="#b16b49"/><ellipse cx="400" cy="470" rx="165" ry="190" fill="#b16b49"/><path d="M230 390Q240 190 410 240Q565 200 575 390Q460 400 375 290Q360 410 230 390Z" fill="#25272d"/><path d="M318 459h32M450 459h32" stroke="#25272d" stroke-width="10" stroke-linecap="round"/><path d="M355 552Q400 594 445 552" fill="none" stroke="#25272d" stroke-width="9" stroke-linecap="round"/><circle cx="130" cy="160" r="46" fill="#dec642"/><path d="M660 700l15 -50l15 50l50 15l-50 15l-15 50l-15 -50l-50 -15Z" fill="#b16b49"/></svg>