<svg xmlns="http://www.w3.org/2000/svg" width="1800" height="2700" viewBox="0 0 1800 2700"><rect width="1800" height="2700" fill="#faf3e9"/><defs><linearGradient id="paper-wash" x1="0" y1="0" x2="1" y2="1"><stop stop-color="#faf3e9"/><stop offset=".6" stop-color="#faf3e9"/><stop offset="1" stop-color="#a5b095"/></linearGradient><pattern id="paper-grain" width="29" height="23" patternUnits="userSpaceOnUse"><circle cx="3" cy="6" r="0.9" fill="#635341" stroke="none" stroke-width="5"/><path d="M12 19h4" fill="none" stroke="#635341" stroke-width="0.7" stroke-linecap="round" stroke-linejoin="round" /></pattern></defs><rect x="0" y="0" width="1800" height="2700" rx="0" fill="url(#paper-wash)" /><rect x="0" y="0" width="1800" height="2700" rx="0" fill="url(#paper-grain)" opacity=".075"/><rect x="0" y="0" width="62.99999999999999" height="2700" rx="0" fill="#bf9b5c" opacity=".10"/><rect x="180" y="0" width="62.99999999999999" height="2700" rx="0" fill="#bf9b5c" opacity=".10"/><rect x="360" y="0" width="62.99999999999999" height="2700" rx="0" fill="#bf9b5c" opacity=".10"/><rect x="540" y="0" width="62.99999999999999" height="2700" rx="0" fill="#bf9b5c" opacity=".10"/><rect x="720" y="0" width="62.99999999999999" height="2700" rx="0" fill="#bf9b5c" opacity=".10"/><rect x="900" y="0" width="62.99999999999999" height="2700" rx="0" fill="#bf9b5c" opacity=".10"/><rect x="1080" y="0" width="62.99999999999999" height="2700" rx="0" fill="#bf9b5c" opacity=".10"/><rect x="1260" y="0" width="62.99999999999999" height="2700" rx="0" fill="#bf9b5c" opacity=".10"/><rect x="1440" y="0" width="62.99999999999999" height="2700" rx="0" fill="#bf9b5c" opacity=".10"/><rect x="1620" y="0" width="62.99999999999999" height="2700" rx="0" fill="#bf9b5c" opacity=".10"/><rect x="270" y="2467.8" width="1260" height="140.4" rx="21" fill="#fff9ef" opacity=".95"/><g transform="translate(9 15)" opacity=".18"><g transform="translate(481.5 1377) rotate(0) translate(-373.5 -985.5)"><rect x="0" y="0" width="747" height="1971" rx="95" fill="none" stroke="#635341" stroke-width="80"/></g><g transform="translate(1318.5 1377) rotate(0) translate(-373.5 -985.5)"><rect x="0" y="0" width="747" height="1971" rx="95" fill="none" stroke="#635341" stroke-width="80"/></g></g><g transform="translate(481.5 1377) rotate(0) translate(-373.5 -985.5)"><rect x="0" y="0" width="747" height="1971" rx="95" fill="none" stroke="#bf9b5c" stroke-width="76"/></g><g transform="translate(1318.5 1377) rotate(0) translate(-373.5 -985.5)"><rect x="0" y="0" width="747" height="1971" rx="95" fill="none" stroke="#bf9b5c" stroke-width="76"/></g><g transform="translate(481.5 1377) rotate(0) translate(-373.5 -985.5)"><rect x="0" y="0" width="747" height="1971" rx="95" fill="none" stroke="#fff9ef" stroke-width="53"/></g><g transform="translate(1318.5 1377) rotate(0) translate(-373.5 -985.5)"><rect x="0" y="0" width="747" height="1971" rx="95" fill="none" stroke="#fff9ef" stroke-width="53"/></g></svg>