<svg xmlns="http://www.w3.org/2000/svg" width="1800" height="2700" viewBox="0 0 1800 2700"><defs><mask id="encore-safe" maskUnits="userSpaceOnUse" x="0" y="0" width="1800" height="2700"><rect x="0" y="0" width="1800" height="2700" rx="0" fill="white" /><g transform="translate(900 884.25) rotate(0) translate(-792 -492.75)"><rect x="0" y="0" width="1584" height="985.5" rx="40" fill="black"/></g><g transform="translate(490.5 1930.5000000000002) rotate(0) translate(-382.5 -432)"><rect x="0" y="0" width="765" height="864" rx="0" fill="black"/></g><g transform="translate(1309.5 1930.5000000000002) rotate(0) translate(-382.5 -432)"><path d="M68.85,0H696.15L765,68.85V795.15L696.15,864H68.85L0,795.15V68.85Z" fill="black"/></g><rect x="216" y="89.10000000000001" width="1368" height="105.3" rx="0" fill="black" /><rect x="288" y="2478.6" width="1224" height="121.5" rx="0" fill="black" /><rect x="270" y="2624.4" width="1260" height="48.599999999999994" rx="0" fill="black" /></mask></defs><g mask="url(#encore-safe)"><defs>
  <linearGradient id="enc-gold" x2=".7" y2="1"><stop stop-color="#82603c"/><stop offset=".24" stop-color="#e6cd94"/><stop offset=".46" stop-color="#fff4c9"/><stop offset=".65" stop-color="#b48b50"/><stop offset=".85" stop-color="#f4dfab"/><stop offset="1" stop-color="#937045"/></linearGradient>
  <linearGradient id="enc-silver" x2="1" y2=".7"><stop stop-color="#f9f5ea"/><stop offset=".3" stop-color="#91a4b0"/><stop offset=".53" stop-color="#ffffff"/><stop offset=".72" stop-color="#b8c6c7"/><stop offset="1" stop-color="#f6efe2"/></linearGradient>
  <linearGradient id="enc-rose" x2="1" y2="1"><stop stop-color="#f7e1e7"/><stop offset=".33" stop-color="#be8398"/><stop offset=".51" stop-color="#f2c4d0"/><stop offset=".77" stop-color="#96647d"/><stop offset="1" stop-color="#ddb0c0"/></linearGradient>
  <pattern id="enc-paper" width="47" height="43" patternUnits="userSpaceOnUse"><path d="M3 12l4 -1M26 35l2 1" stroke="#715443" stroke-opacity=".12" stroke-width="1"/></pattern>
  <filter id="enc-shadow" x="-.12" y="-.1" width="1.24" height="1.22"><feDropShadow dx="5" dy="9" stdDeviation="5" flood-color="#24352b" flood-opacity=".22"/></filter>
  </defs><g transform="translate(900 1441.8000000000002) rotate(0) scale(0.885)"><path d="M-30 18Q-20 -40 21 -51M32 20Q40 -25 21 -51" fill="none" stroke="#719166" stroke-width="6" stroke-linecap="round" /><circle cx="-30" cy="35" r="29" fill="#ad2e49" stroke="#f2c49f" stroke-width="3"/><circle cx="32" cy="36" r="29" fill="#73172c" stroke="#f2c49f" stroke-width="3"/><path d="M-41 17Q-49 20 -47 30M20 18Q14 24 16 33" fill="none" stroke="#e59b9b" stroke-width="6" stroke-linecap="round" /></g><text x="432" y="1452.6000000000001" fill="#fff0cf" text-anchor="middle" font-family="Georgia,serif" font-size="34.5" letter-spacing="3">CHERRY CLUB</text><text x="1368" y="1452.6000000000001" fill="#fff0cf" text-anchor="middle" font-family="Georgia,serif" font-size="34.5" letter-spacing="3">SPECIAL EDITION</text><text x="900" y="302.40000000000003" fill="#fff0cf" text-anchor="middle" font-family="Georgia,serif" font-size="33" letter-spacing="3">SWEET MOMENTS / RARE FINDS</text><text x="900" y="2438.1" fill="#fff0cf" text-anchor="middle" font-family="Georgia,serif" font-size="30" letter-spacing="3">SEALED IN VELVET</text></g></svg>